# xmcd
#
# Track frame offsets: 
#        150
#        13450
#        26399
#        38018
#        52290
#        65825
#        83760
#        95673
#        105883
#        116143
#        128856
#        143220
#        156760
#        175027
#        190551
#
# Disc length: 2755 seconds
#
# Revision: 0
# Processed by: cddbd v1.5.2PL0 Copyright (c) Steve Scherf et al.
# Submitted via: ExactAudioCopyFreeDBPlugin 1.0
#
DISCID=c90ac10f
DTITLE=Johnny Bremner - High on a Hilltop
DYEAR=1900
DGENRE=Country
TTITLE0=Im Dreamin Of You
TTITLE1=Walking Peice Of Heaven
TTITLE2=Walking Talking AchingBreaking Heart
TTITLE3=Wilde Side Of Life
TTITLE4=A Fathers Love
TTITLE5=Its Good To See You
TTITLE6=Aching Breaking Heart
TTITLE7=My World Come Down
TTITLE8=Before The Next Teardrop Falls
TTITLE9=Say Goodbuy To The One Who Loves You
TTITLE10=Somewhere Between Me And You
TTITLE11=High On A Hilltop
TTITLE12=All You Ever Do Is Bring Me Down
TTITLE13=All Friends Together
TTITLE14=Absent Friends
EXTD=
EXTT0=
EXTT1=
EXTT2=
EXTT3=
EXTT4=
EXTT5=
EXTT6=
EXTT7=
EXTT8=
EXTT9=
EXTT10=
EXTT11=
EXTT12=
EXTT13=
EXTT14=
PLAYORDER=
